<svg xmlns="http://www.w3.org/2000/svg" id="logo" viewBox="0 0 90 32" width="80" height="80"><path d="M15.401 2C7.84 2.25 1.876 8.475 2.002 15.986c.126 7.51 6.295 13.534 13.862 13.534 7.566 0 13.735-6.023 13.861-13.534C29.851 8.475 23.888 2.25 16.325 2h-.924zm19.41 0c-7.563.25-13.526 6.475-13.4 13.986.126 7.51 6.295 13.534 13.862 13.534 7.566 0 13.735-6.023 13.861-13.534C49.26 8.475 43.297 2.25 35.734 2h-.924zm19.408 0c-7.562.25-13.525 6.475-13.4 13.986.127 7.51 6.296 13.534 13.863 13.534 7.566 0 13.735-6.023 13.861-13.534C68.67 8.475 62.706 2.25 55.143 2h-.924zm19.41 0c-7.563.25-13.526 6.475-13.4 13.986.126 7.51 6.295 13.534 13.862 13.534 7.566 0 13.735-6.023 13.861-13.534C88.078 8.475 82.115 2.25 74.552 2h-.924z" stroke="#000" stroke-width="3.584" fill="none" fill-rule="evenodd"/></svg>